<svg xmlns="http://www.w3.org/2000/svg" viewBox="0 0 256 256"><svg xmlns="http://www.w3.org/2000/svg" fill="none" viewBox="0 0 256 256"><rect width="256" height="256" fill="#AAFF01" rx="22"/><path fill="#030500" fill-rule="evenodd" d="M162 71.4c0-.8-.7-1.4-1.4-1.4H53.4c-.8 0-1.4.6-1.4 1.4v105.1c0 .8.6 1.4 1.4 1.4h65.8v6.7c0 .8.6 1.4 1.4 1.4h82.7c.7 0 1.3-.6 1.3-1.4v-81c0-.8-.6-1.4-1.3-1.4h-41.4V71.4Zm0 30.8h-41.4c-.8 0-1.4.6-1.4 1.3V178h41.4c.7 0 1.3-.6 1.3-1.4v-74.3Z" clip-rule="evenodd"/></svg></svg>