<svg xmlns="http://www.w3.org/2000/svg" fill="none" viewBox="0 0 1056 380"><path fill="#AAFF01" fill-rule="evenodd" d="M360.1 4.4c0-2.4-2-4.4-4.5-4.4H4.6C2 0 0 2 0 4.4V349c0 2.4 2 4.4 4.5 4.4h215.7v22.2c0 2.4 2 4.4 4.5 4.4h270.8c2.5 0 4.5-2 4.5-4.4V109.8c0-2.4-2-4.4-4.5-4.4H360V4.4Zm0 101H224.7c-2.5 0-4.5 2-4.5 4.4v243.6h135.4c2.5 0 4.5-2 4.5-4.4V105.4Z" clip-rule="evenodd"/><path fill="#030500" d="M647.6 270.6a80.4 80.4 0 0 1-30.4-5 45 45 0 0 1-18.9-14c-4.2-6-6.6-12.9-7.2-20.6l33.3-1.1c1 5.5 3.3 9.8 7 13 3.6 3 9 4.5 16.2 4.5 5.8 0 10.4-1 13.6-2.8 3.3-2 5-4.8 5-8.8 0-2.5-.6-4.5-1.7-6.1-1.2-1.8-3.5-3.2-7-4.4a75.3 75.3 0 0 0-15.2-3.5 143.4 143.4 0 0 1-29-7.7c-7-2.9-12-6.7-15-11.4-2.9-4.6-4.4-10.3-4.4-17a33 33 0 0 1 13-27.2c8.7-7 21.8-10.5 39.2-10.5 11 0 20.3 1.7 27.8 5.3a41.1 41.1 0 0 1 17.5 14.4c4.2 6 6.9 12.9 7.9 20.6l-33 1.3a20 20 0 0 0-3.6-9.6c-1.7-2.8-4-5-6.8-6.4a19.8 19.8 0 0 0-10-2.4c-5.9 0-10.4 1.2-13.6 3.7-3 2.4-4.6 5.5-4.6 9.4 0 3 .6 5.4 2 7.3a16 16 0 0 0 7 4.4c3.2 1.1 7.5 2 12.9 2.8 12.5 1.8 22.5 4.2 29.8 7.4 7.4 3.1 12.7 7 16 11.7a29.8 29.8 0 0 1 4.8 17.3c0 7.5-2.2 14-6.6 19.2a41 41 0 0 1-18.4 12c-7.7 2.8-17 4.2-27.6 4.2Zm66.3-2.6V112.5h32.8v86.3l43.6-48.2h39.4L784.1 199l47 69h-36l-32.2-50.4-16.2 17.3V268h-32.8Zm124.3 0V150.6H871V268h-32.8Zm-.7-131.8v-26.3h34v26.3h-34ZM899.7 268V149c0-11.6 3.1-20.6 9.4-26.8 6.3-6.5 16-9.7 29.3-9.7h25V137h-18c-4.5 0-7.8 1.2-9.8 3.5-2 2.2-3 5.6-3 10.1V268h-33Zm-17.1-88.5V155h79v24.5h-79Zm138.2 88.5c-12.1 0-21-2.8-26.7-8.3-5.7-5.7-8.6-14.7-8.6-27V123h32.9v105.8c0 5.7 1.1 9.6 3.5 11.6s6.1 3 11 3h16.3V268h-28.4Zm-54.1-92.9v-24.5h82.5v24.5h-82.5Z"/></svg>